<svg xmlns="http://www.w3.org/2000/svg" width="16" height="16" viewBox="0 0 16 16" version="1.1"><path d="M 6 1.389 C 6 2.153, 6.723 2.715, 7.607 2.639 C 9.959 2.436, 12.769 11.368, 11.017 13.480 C 9.486 15.325, 6.894 15.441, 4.998 13.750 C 3.806 12.687, 3.794 12.761, 4.921 14.250 C 7.668 17.881, 14 15.631, 14 11.024 C 14 9.426, 13.601 7.871, 13.113 7.570 C 12.626 7.269, 11.930 5.442, 11.568 3.511 C 11.027 0.629, 10.470 -0, 8.455 -0 C 7.027 -0, 6 0.581, 6 1.389 M 5 6 C 5 6.733, 5.300 7.033, 5.667 6.667 C 6.033 6.300, 6.033 5.700, 5.667 5.333 C 5.300 4.967, 5 5.267, 5 6 M 4 9 C 4 9.733, 4.300 10.033, 4.667 9.667 C 5.033 9.300, 5.033 8.700, 4.667 8.333 C 4.300 7.967, 4 8.267, 4 9 M 6 9.500 C 6 9.775, 6.225 10, 6.500 10 C 6.775 10, 7 9.775, 7 9.500 C 7 9.225, 6.775 9, 6.500 9 C 6.225 9, 6 9.225, 6 9.500 M 9 9.500 C 9 9.775, 9.225 10, 9.500 10 C 9.775 10, 10 9.775, 10 9.500 C 10 9.225, 9.775 9, 9.500 9 C 9.225 9, 9 9.225, 9 9.500 M 7.014 13.414 C 7.662 14.062, 8.338 14.062, 8.986 13.414 C 9.633 12.767, 9.295 12.429, 8 12.429 C 6.705 12.429, 6.367 12.767, 7.014 13.414" stroke="none" fill="#11693c" fill-rule="evenodd"/><path d="M 6.576 3.167 C 3.954 11.403, 3.848 12.112, 5.032 13.539 C 6.604 15.433, 9.419 15.405, 11.017 13.480 C 12.037 12.250, 11.993 11.065, 10.784 7.278 C 9.281 2.567, 7.364 0.694, 6.576 3.167 M 6 9.500 C 6 9.775, 6.225 10, 6.500 10 C 6.775 10, 7 9.775, 7 9.500 C 7 9.225, 6.775 9, 6.500 9 C 6.225 9, 6 9.225, 6 9.500 M 9 9.500 C 9 9.775, 9.225 10, 9.500 10 C 9.775 10, 10 9.775, 10 9.500 C 10 9.225, 9.775 9, 9.500 9 C 9.225 9, 9 9.225, 9 9.500 M 7.014 13.414 C 7.662 14.062, 8.338 14.062, 8.986 13.414 C 9.633 12.767, 9.295 12.429, 8 12.429 C 6.705 12.429, 6.367 12.767, 7.014 13.414" stroke="none" fill="#7c7651" fill-rule="evenodd"/></svg>